<svg xmlns="http://www.w3.org/2000/svg" width="138" height="50" viewBox="0 0 138 50" fill="none"><path d="M63.3 34V15.8H66.056L74.922 26.33C75.338 26.798 75.754 27.292 76.118 27.838C76.014 27.058 75.988 25.94 75.988 24.874V15.8H79.316V34H76.95L67.746 23.054C67.33 22.586 66.914 22.092 66.55 21.546C66.654 22.326 66.68 23.444 66.68 24.51V34H63.3ZM88.1253 34.338C83.9393 34.338 81.1313 31.166 81.1313 27.266C81.1313 23.366 84.0693 20.142 88.1253 20.142C92.1813 20.142 94.9893 23.366 94.9893 27.266C94.9893 27.656 94.9633 28.072 94.8853 28.514H84.7713C85.1613 30.1 86.3573 31.218 88.1253 31.218C89.6333 31.218 90.8033 30.438 91.4273 29.398L94.1573 31.452C93.0653 33.142 90.8033 34.338 88.1253 34.338ZM84.7713 25.888H91.4533C91.0633 24.38 89.7893 23.158 88.0733 23.158C86.4093 23.158 85.1613 24.276 84.7713 25.888ZM93.9353 34L99.0053 27.24L94.1953 20.48H98.3813L101.137 24.77L103.997 20.48H108.105L103.295 27.292L108.365 34H104.101L101.163 29.684L98.1213 34H93.9353ZM114.271 34C111.593 34 110.137 32.752 110.137 29.814V23.47H108.239V20.48H110.137V17.75L113.647 17.386V20.48H116.507V23.47H113.647V29.632C113.647 30.49 114.063 30.88 114.739 30.88H116.195V34H114.271ZM124.007 34.338C119.821 34.338 116.805 31.166 116.805 27.266C116.805 23.366 119.821 20.168 124.007 20.168C128.193 20.168 131.209 23.366 131.209 27.266C131.209 31.166 128.193 34.338 124.007 34.338ZM120.315 27.266C120.315 29.372 121.771 31.14 124.007 31.14C126.243 31.14 127.699 29.372 127.699 27.266C127.699 25.16 126.243 23.366 124.007 23.366C121.771 23.366 120.315 25.16 120.315 27.266Z" fill="white"></path><path d="M134.127 34.338C132.775 34.338 131.787 33.298 131.787 32.05C131.787 30.828 132.775 29.788 134.127 29.788C135.479 29.788 136.441 30.828 136.441 32.05C136.441 33.298 135.479 34.338 134.127 34.338Z" fill="#EF4823"></path><circle cx="25" cy="25" r="25" fill="#EF4823"></circle><path fill-rule="evenodd" clip-rule="evenodd" d="M29.7423 30.2196C30.0607 29.8698 30.0554 29.3127 29.727 28.9695L21.5396 20.4274L25.5862 16.2057L31.9524 22.8478C33.2874 24.2412 33.2874 26.5208 31.9524 27.9141L29.7423 30.2196Z" fill="white"></path><path fill-rule="evenodd" clip-rule="evenodd" d="M29.7423 30.2196L29.727 30.2362L23.6989 36.5254C22.5097 37.7662 22.5097 39.7903 23.6989 41.0311L25.5862 43L35.9986 32.1359C37.3338 30.743 37.3338 28.4629 35.9986 27.0699L31.9523 22.8478C33.2873 24.2412 33.2873 26.5208 31.9523 27.9141L29.7423 30.2196Z" fill="white"></path><path fill-rule="evenodd" clip-rule="evenodd" d="M20.2574 19.7804C19.9393 20.1302 19.9445 20.6873 20.2729 21.0306L28.4604 29.5727L24.4138 33.7944L18.0477 27.1522C16.7126 25.7589 16.7126 23.4793 18.0477 22.086L20.2574 19.7804Z" fill="white"></path><path fill-rule="evenodd" clip-rule="evenodd" d="M20.2575 19.7804L20.273 19.7638L26.3011 13.4747C27.4903 12.2339 27.4903 10.2097 26.3011 8.9689L24.4139 7L14.0017 17.8642C12.6661 19.2571 12.6661 21.5372 14.0017 22.9302L18.0479 27.1522C16.7127 25.7589 16.7127 23.4793 18.0479 22.086L20.2575 19.7804Z" fill="white"></path></svg>